<svg xmlns="http://www.w3.org/2000/svg" width="91" height="36" viewBox="0 0 345.981 98.944"><path d="M25.17 78.022c0 5.773-2.372 13.534-9.374 13.534-3.51 0-5.575-1.809-5.575-5.403.001-6.785 9.939-8.131 14.949-8.131m10.042 19.871V65.815c0-10.399-6.824-13.992-16.386-13.992-9.351 0-17.137 3.972-17.137 14.289h10.242c0-4.456 2.367-6.902 6.896-6.902 5.196 0 6.344 3.768 6.344 8.221v4.449C14.95 72.162 0 73.587 0 87.118c0 7.662 6.061 11.824 13.243 11.824 4.925 0 9.464-1.611 11.745-6.248h.184v5.199h10.04M66.35 68.282h11.165c0-11.075-6.138-16.459-17.126-16.459-13.509 0-20.629 8.504-20.629 21.557 0 15.708 8.045 25.563 24.122 25.563 4.455 0 8.897-.747 13.161-2.082v-6.434c-2.469.849-5.023 1.13-7.559 1.13-11.949 0-18.559-8.704-18.559-20.053 0-5.389 1.986-12.294 8.615-12.294 5.484 0 6.81 4.441 6.81 9.072m40.349 0h11.177c0-11.075-6.164-16.459-17.134-16.459-13.526 0-20.627 8.504-20.627 21.557 0 15.708 8.036 25.563 24.124 25.563 4.443 0 8.902-.747 13.15-2.082v-6.434c-2.452.849-5.014 1.13-7.566 1.13-11.916 0-18.559-8.704-18.559-20.053 0-5.389 2.005-12.294 8.62-12.294 5.487 0 6.815 4.441 6.815 9.072m41.174-1.991h-16.465c.48-4.545 3.967-7.774 8.474-7.774 4.847 0 7.991 2.954 7.991 7.774m9.936 6.355V70.08c0-10.973-5.677-18.257-17.129-18.257-13.428 0-19.313 8.419-19.313 21.194 0 14.84 6.716 25.927 22.705 25.927 4.265 0 8.544-.469 12.575-1.8v-7.282c-2.652.939-5.756 1.693-8.593 1.693-10.211 0-16.951-9.358-16.951-18.909h26.706m31.123 25.247h10.526v-31.22c0-7.749-3.632-14.85-12.228-14.85-6.436 0-10.963 3.7-13.34 9.454h-.187v-8.439H163.18v45.058h10.524V78.407c0-6.068 3.032-16.747 10.573-16.747 1.08 0 2.268.086 3.051.858 1.774 1.694 1.604 7.46 1.604 9.644v25.731m32.346-37.747h13.379v-7.308h-13.379V37.907l-10.457 4.255v10.674h-8.813v7.308h8.813v26.393c0 9.377 4.587 12.404 13.796 12.404 2.852 0 5.762-.272 8.584-.747v-7.395c-1.581.391-3.183.753-4.817.753-6.547 0-7.106-4.823-7.106-10.132V60.146m43.767 37.747h10.504V52.838h-10.504v19.5c0 6.067-3.031 16.75-10.616 16.75-1.024 0-2.274-.076-3.032-.836-1.806-1.712-1.603-7.486-1.603-9.651V52.836h-10.487v31.249c0 7.766 3.564 14.858 12.195 14.858 6.356 0 10.987-3.792 13.363-9.452h.18v8.402m27.636-19.768c0-10.6 3.969-15.32 14.745-15.32V51.823c-7.555 0-11.076 3.124-14.567 9.35h-.178v-8.337H282.16v45.058h10.521V78.125m43.368-11.834h-16.47c.475-4.545 3.973-7.774 8.505-7.774 4.842 0 7.965 2.954 7.965 7.774m9.932 6.355V70.08c0-10.974-5.671-18.257-17.131-18.257-13.433 0-19.303 8.419-19.303 21.194 0 14.84 6.721 25.927 22.698 25.927 4.263 0 8.528-.469 12.595-1.8v-7.282c-2.646.939-5.771 1.693-8.589 1.693-10.248 0-16.964-9.358-16.964-18.909h26.694M201.997 0v7.408s20.975 8.128 23.978 9.297c-3.003 1.151-23.978 9.238-23.978 9.238v7.398l32.669-13.273v-6.789L201.997 0" fill="#95999E"/></svg>