<svg xmlns="http://www.w3.org/2000/svg" width="73" height="13.5" viewBox="0 0 277.172 50.822"><path fill="#95999E" d="M28.148 18.776c0 6.329-3.061 10.614-10.813 10.614h-2.449V9.236c.871-.051 1.684-.051 2.449-.051 7.34.001 10.813 3.47 10.813 9.591m-7.957 19.392c13.87 0 22.639-7.146 22.639-19.594C42.829 4.897 33.448 0 18.151 0 12.235 0 5.098.406 0 1.02v48.784h14.888V38.168h5.303zm199.464-19.392c0 6.329-3.057 10.614-10.81 10.614h-2.442V9.236c.864-.051 1.679-.051 2.442-.051 7.341.001 10.81 3.47 10.81 9.591m-7.947 19.392c13.858 0 22.632-7.146 22.632-19.594C234.34 4.897 224.961 0 209.663 0c-5.914 0-13.058.406-18.155 1.02v48.784h14.894V38.168h5.306zm42.005-24.698c0-2.652 2.654-3.879 6.933-3.879 4.693 0 9.795 1.021 13.26 2.455L272.684 1.43C268.805.612 265.339 0 259.019 0c-12.035 0-20.191 4.747-20.191 14.698 0 17.141 23.256 13.674 23.256 21.633 0 3.06-2.248 4.691-7.757 4.691-4.888 0-12.438-1.632-16.925-3.877l1.637 11.23c4.481 1.633 10.6 2.446 15.497 2.446 12.437 0 22.637-4.084 22.637-16.332-.001-16.321-23.46-13.262-23.46-21.019M180.295 1.02h-14.887v48.784h14.887V1.02zm-60.372 0h-14.889v48.784h14.889V1.02zm25.902 38.983V1.02h-14.889v48.784h26.924l2.241-9.801h-14.276zM94.022 1.02H79.134v19.39H63.633V1.02H48.741v48.784h14.892V30.615h15.5v19.188h14.889V1.02z"/></svg>