<svg xmlns="http://www.w3.org/2000/svg" viewBox="0 0 72 12.5"><path d="M16.2 0L9.9 4.9C9.3 2.4 7.1.7 4.5.6H0v11.2h4.5c2.5 0 4.8-1.7 5.3-4.2l6.3 4.8 6.3-4.8v4.2h7.1V9.6h-4.7v-9h-2.6v4.2l-6 4.9L15 8.6l3-2.3 3-2.4-1.7-1.5-6 4.7L12 6l6-4.5L16.2 0zM2.4 2.9h1.9c.4 0 .8.1 1.2.3.4.2.7.4 1 .7.3.3.5.7.7 1.1.3.8.3 1.8 0 2.6-.2.4-.4.8-.6 1.1-.3.3-.7.6-1 .8-.4.2-.9.3-1.3.3H2.4V2.9zm35.3 6.7v2.3h-7.1V.6h2.6v8.9l4.5.1zm30 2.4c2.2 0 4-1.1 4.3-3.5l-.1-.1h-.6l-.1.1c-.2 1.7-1.7 2.8-3.3 2.7-2.4 0-4.1-1.8-4.1-4.9s1.8-4.9 4.1-4.9c1.6-.2 3.1.9 3.3 2.5V4h.6l.2-.1C71.7 1.7 69.9.6 67.7.6c-2.7 0-5.1 1.9-5.1 5.7S65 12 67.7 12zm-7-.3V.9l-.1-.1h-1.1l-.1.1-4.1 9.6h-.1L51 .9l-.1-.1h-1.1l-.1.1v10.8l.1.1h.6l.1-.1V2.5h.1l4 9.2.1.1h.8l.1-.1 4-9.2h.2v9.2l.1.1h.6l.2-.1zm-13.4 0v-.5l-.1-.1h-5.9l-.1-.1V6.8l.1-.1h5.5l.2-.2V6l-.1-.1h-5.5l-.1-.1v-4l.1-.1h5.9l.1-.1V.9l-.1-.1h-6.9l-.1.1v10.8l.1.1h6.8l.1-.1z" fill="#95999e"/></svg>