<svg xmlns="http://www.w3.org/2000/svg" width="55" height="12" viewBox="0 0 210.551 46.051"><path d="M166.661 23.001c0 13.216-9.368 23.003-22.6 23.003-13.488 0-22.646-9.367-22.646-22.992C121.416 10.124 130.45 0 144.061 0c13.231 0 22.6 9.788 22.6 23.001zm-11.682.002c0-7.726-2.986-14.578-10.911-14.578-7.928 0-10.982 6.854-10.982 14.578 0 7.729 3.054 14.587 10.982 14.587 7.925 0 10.911-6.858 10.911-14.587zm-67.851-4.087c-.546-5.978-2.745-10.786-6.414-14.045C77.18 1.728 72.435.031 66.568.031c-4.324 0-9.795 1.489-13.821 4.799-4.802 3.95-8.519 10.131-8.519 18.446 0 7.168 2.323 12.943 6.514 16.854 4.103 3.83 9.905 5.921 17.1 5.921 5.792 0 12.788-2.187 15.789-4.041 1.05-.648 1.379-.928 1.108-1.988l-1.874-5.306c-.217-.87-1.183-1.094-1.968-.704-1.317.647-2.3 1.157-3.636 1.65-2.593.958-5.277 1.612-7.833 1.612-5.379 0-8.438-1.462-10.78-4.159-1.488-1.714-2.359-3.886-2.63-6.395h29.684c1.08 0 1.561-.746 1.561-2.009v-2.139c-.001-1.041-.047-2.677-.135-3.656zm-10.637-.178H56.002c.22-1.486.645-2.898 1.312-4.239 1.826-3.685 5.31-6.037 9.626-6.037 5.929 0 9.552 4.027 9.552 10.004v.272zM97.799 6.371c3.359-4.331 8.594-6.295 17.164-6.295 2.014 0 4.487.224 6.04.591 1.022.243 1.177 1.04.99 2.065l-1.017 5.002c-.236.933-.492 1.199-1.227 1.199a6.34 6.34 0 0 1-.599-.053c-.706-.086-2.729-.308-3.573-.308-4.261 0-6.292 1.062-7.806 2.687-1.76 1.889-1.821 4.682-1.821 9.688v22.217c0 1.463-.641 2.282-2.21 2.282l-6.781-.001c-1.452 0-2.078-.728-2.196-2.281V21.353c-.003-7.946.463-11.661 3.036-14.982zm-76.003 9.233c1.523-1.576 5.06-5.944 8.989-13.355C31.439.978 32.03.67 32.915.67l7.296-.001c.653 0 1.439.314 1.013 1.58-2.892 8.597-9.511 16.125-13.163 20.023 3.988 3.776 11.058 12.718 14.381 21.478.3.789.152 1.692-1.516 1.692h-8.712c-.905 0-1.606-.088-2.211-1.578-2.163-5.385-5.538-11.031-9.393-14.744-4.207 4.467-7.414 9.973-9.575 14.744-.527 1.169-1.055 1.578-2.205 1.578H.838c-.534 0-1.077-.627-.727-1.585 2.376-6.521 7.112-14.635 13.884-20.736C8.681 16.688 3.556 8.852 1.536 2.249c-.304-.992.226-1.58.963-1.58h9.387c1.015 0 1.544.413 2.046 1.58 2.308 5.38 5.463 10.508 7.864 13.355zm167.987 0c1.521-1.576 5.059-5.944 8.986-13.355C199.423.978 200.016.67 200.9.67l7.295-.001c.653 0 1.443.314 1.014 1.58-2.89 8.597-9.511 16.125-13.159 20.023 3.981 3.776 11.053 12.718 14.378 21.478.3.789.151 1.692-1.516 1.692h-8.714c-.901 0-1.602-.088-2.212-1.578-2.16-5.385-5.535-11.031-9.393-14.744-4.208 4.467-7.414 9.973-9.575 14.744-.526 1.169-1.054 1.578-2.203 1.578h-7.99c-.531 0-1.078-.627-.729-1.585 2.377-6.521 7.113-14.635 13.884-20.736-5.315-6.434-10.441-14.27-12.461-20.872-.302-.992.229-1.58.964-1.58h9.388c1.012 0 1.545.413 2.044 1.58 2.31 5.38 5.466 10.508 7.868 13.355z" fill-rule="evenodd" clip-rule="evenodd" fill="#95999E"/></svg>