<svg xmlns="http://www.w3.org/2000/svg" width="61" height="32" viewBox="0 0 228.919 120.74"><path d="M88.365 110.485l-.038 9.132.667.114c2.096.391 4.212.663 6.337.814a38.53 38.53 0 0 0 5.603.11 23.518 23.518 0 0 0 5.257-.992 14.575 14.575 0 0 0 5.452-2.907 11.007 11.007 0 0 0 3.177-4.553 12.534 12.534 0 0 0-.064-9.167 10.276 10.276 0 0 0-2.848-3.944 11.81 11.81 0 0 0-4.178-2.433l-6.885-2.556a3.694 3.694 0 0 1-1.882-1.79 2.347 2.347 0 0 1 .077-2.09c.123-.228.277-.436.459-.619.211-.213.447-.4.703-.557.104-.063.207-.122.313-.177a7.305 7.305 0 0 1 2.455-.715 14.311 14.311 0 0 1 4.392.047c1.717.186 3.419.49 5.092.911l.357.079V80.77l-.658-.141a44.76 44.76 0 0 0-5.18-.923 26.543 26.543 0 0 0-6.811-.028 14.716 14.716 0 0 0-7.84 3.152 10.413 10.413 0 0 0-3.35 4.617 12.683 12.683 0 0 0-.008 8.583 9.638 9.638 0 0 0 2.408 3.634 13.783 13.783 0 0 0 3.117 2.258 21.35 21.35 0 0 0 4.738 1.86 49.24 49.24 0 0 1 1.622.517l.815.299.234.095a6.1 6.1 0 0 1 2.156 1.331c.429.401.76.896.966 1.447.128.502.13 1.029.006 1.533a3.25 3.25 0 0 1-1.577 1.89 7.8 7.8 0 0 1-2.626.821 19 19 0 0 1-4.071.205 46.578 46.578 0 0 1-5.313-.709 50.276 50.276 0 0 1-2.737-.64l-.337-.086m-37.438 8.8v-10.602l-.208.09a19.622 19.622 0 0 1-7.642 1.94 11.24 11.24 0 0 1-7.693-2.269 9.841 9.841 0 0 1-3.35-4.756 11.437 11.437 0 0 1-.225-6.359 9.738 9.738 0 0 1 3.41-5.438 10.222 10.222 0 0 1 5.357-2.312 17.666 17.666 0 0 1 10.121 1.899l.229.118V80.935l-.484-.13a27.105 27.105 0 0 0-9.648-1.263 22.304 22.304 0 0 0-8.617 1.971 19.704 19.704 0 0 0-7.055 5.452 21.226 21.226 0 0 0-.387 25.818 20.225 20.225 0 0 0 11.217 7.213c4.688 1.14 9.6.967 14.195-.497l.78-.214m23.845.701V80.219H64.745v39.767h10.027m148.402-4.619v-.601h-4.243v.601h1.763v4.619h.715v-4.619h1.765m.413 4.619h.676v-4.169h.09l1.525 4.169h.68l1.648-4.37v4.37h.713v-5.22h-1.102l-1.546 4.299-1.567-4.299h-1.117v5.22M0 48.261a4.973 4.973 0 0 0 9.917 0V37.239a4.966 4.966 0 0 0-4.959-4.766 4.967 4.967 0 0 0-3.439 1.384A4.965 4.965 0 0 0 0 37.239v11.022m27.45 0a4.974 4.974 0 0 0 9.917 0V23.553a4.963 4.963 0 0 0-8.397-3.382 4.972 4.972 0 0 0-1.52 3.382v24.708m27.304 9.951a4.97 4.97 0 0 0 8.341 3.274 4.972 4.972 0 0 0 1.576-3.274V4.768a4.96 4.96 0 0 0-9.917 0v53.444M82.2 48.261a4.965 4.965 0 0 0 1.576 3.275 4.965 4.965 0 0 0 3.381 1.328 4.973 4.973 0 0 0 4.959-4.603V23.553a4.962 4.962 0 0 0-9.917 0v24.708m27.325 0a4.974 4.974 0 0 0 4.958 4.603 4.974 4.974 0 0 0 4.958-4.603V37.239a4.961 4.961 0 0 0-9.916 0v11.022m27.424 0a4.973 4.973 0 0 0 9.918 0V23.553a4.962 4.962 0 0 0-9.918 0v24.708m27.315 9.951a4.969 4.969 0 0 0 8.34 3.274 4.967 4.967 0 0 0 1.576-3.274V4.768a4.97 4.97 0 0 0-1.52-3.383 4.959 4.959 0 0 0-6.878 0 4.964 4.964 0 0 0-1.518 3.383v53.444m27.402-9.951a4.974 4.974 0 0 0 4.959 4.603 4.974 4.974 0 0 0 4.957-4.603V23.553a4.96 4.96 0 0 0-4.958-4.766 4.96 4.96 0 0 0-4.959 4.766v24.708m27.339 0a4.969 4.969 0 0 0 8.34 3.275 4.974 4.974 0 0 0 1.576-3.275V37.239a4.962 4.962 0 0 0-9.916 0v11.022m-63.31 71.024v-10.602l-.208.09a19.626 19.626 0 0 1-7.643 1.94 11.243 11.243 0 0 1-7.691-2.268 9.848 9.848 0 0 1-3.35-4.757 11.428 11.428 0 0 1-.226-6.359 9.74 9.74 0 0 1 3.411-5.438 10.222 10.222 0 0 1 5.357-2.312 17.666 17.666 0 0 1 10.121 1.899l.228.118V80.935l-.483-.13a27.105 27.105 0 0 0-9.648-1.263 22.317 22.317 0 0 0-8.617 1.97 19.718 19.718 0 0 0-7.055 5.453 21.227 21.227 0 0 0-.387 25.818 20.224 20.224 0 0 0 11.218 7.213 26.293 26.293 0 0 0 14.194-.497l.779-.214m10.566-19.166a20.925 20.925 0 0 0 25.442 20.106 20.41 20.41 0 0 0 6.69-37.578 21.059 21.059 0 0 0-32.132 17.472m14.556-8.157a10.458 10.458 0 0 1 16.917 9.334 10.46 10.46 0 0 1-11.555 9.229 10.461 10.461 0 0 1-9.228-11.555 10.453 10.453 0 0 1 3.866-7.008" fill="#95999E"/></svg>